<?xml version="1.0" encoding="UTF-8"?>
<svg xmlns="http://www.w3.org/2000/svg" xmlns:xlink="http://www.w3.org/1999/xlink" viewBox="0 0 480 480" width="480px" height="480px">
<g id="surface10251327">
<path style=" stroke:none;fill-rule:nonzero;fill:rgb(29.019609%,76.078433%,91.764706%);fill-opacity:1;" d="M 360.007812 410.007812 L 300.007812 410.007812 L 290.007812 450.007812 L 190.003906 450.007812 L 180.003906 410.007812 L 120.003906 410.007812 L 130.003906 390.007812 L 350.007812 390.007812 Z M 360.007812 410.007812 "/>
<path style=" stroke:none;fill-rule:nonzero;fill:rgb(29.019609%,76.078433%,91.764706%);fill-opacity:1;" d="M 230.09375 369.746094 C 258.777344 332.238281 269.804688 321.238281 269.804688 300.246094 C 269.804688 271.566406 246.636719 258.324219 227.886719 245.085938 C 209.132812 231.84375 178.242188 220.816406 188.175781 202.0625 C 180.453125 196.542969 180.453125 196.542969 180.453125 196.542969 L 157.285156 225.226562 C 157.285156 225.226562 139.8125 243.996094 140.734375 266.046875 C 141.832031 292.515625 152.972656 301.1875 176.035156 316.785156 C 213.542969 342.15625 231.195312 352.085938 221.265625 363.117188 C 230.09375 369.746094 224.585938 365.339844 230.09375 369.746094 Z M 230.09375 369.746094 "/>
<path style=" stroke:none;fill-rule:nonzero;fill:rgb(29.019609%,76.078433%,91.764706%);fill-opacity:1;" d="M 306.546875 289.617188 L 353.417969 229.203125 C 353.417969 229.203125 369.6875 211.84375 369.6875 179.304688 C 369.6875 146.761719 343.65625 127.242188 329.558594 117.472656 C 315.457031 107.710938 263.386719 71.910156 263.386719 71.910156 C 263.386719 71.910156 244.945312 62.152344 244.945312 48.050781 C 244.945312 37.199219 247.925781 35.421875 247.925781 35.421875 L 241.414062 30 L 200.472656 84.933594 C 200.472656 84.933594 184.203125 102.28125 184.203125 128.324219 C 184.203125 154.363281 196.132812 174.964844 209.15625 184.722656 C 222.175781 194.484375 280.746094 234.625 280.746094 234.625 C 280.746094 234.625 299.976562 248.90625 302.4375 266.085938 C 304.15625 278.074219 303.296875 279.855469 300.035156 285.277344 C 306.546875 289.617188 306.546875 289.617188 306.546875 289.617188 Z M 306.546875 289.617188 "/>
</g>
</svg>
