<?xml version="1.0" encoding="UTF-8"?>
<svg xmlns="http://www.w3.org/2000/svg" xmlns:xlink="http://www.w3.org/1999/xlink" viewBox="0 0 240 240" width="240px" height="240px">
<g id="surface102349428">
<path style=" stroke:none;fill-rule:nonzero;fill:rgb(29.019609%,76.078433%,91.764706%);fill-opacity:1;" d="M 180.003906 205.003906 L 150.003906 205.003906 L 145.003906 225.003906 L 95.003906 225.003906 L 90 205.003906 L 60 205.003906 L 65 195.003906 L 175.003906 195.003906 Z M 180.003906 205.003906 "/>
<path style=" stroke:none;fill-rule:nonzero;fill:rgb(29.019609%,76.078433%,91.764706%);fill-opacity:1;" d="M 115.046875 184.875 C 129.386719 166.117188 134.902344 160.617188 134.902344 150.125 C 134.902344 135.78125 123.316406 129.164062 113.941406 122.542969 C 104.566406 115.921875 89.121094 110.40625 94.085938 101.03125 C 90.226562 98.273438 90.226562 98.273438 90.226562 98.273438 L 78.640625 112.613281 C 78.640625 112.613281 69.90625 121.996094 70.367188 133.023438 C 70.917969 146.257812 76.488281 150.59375 88.015625 158.394531 C 106.773438 171.078125 115.597656 176.042969 110.632812 181.558594 C 115.046875 184.875 112.292969 182.667969 115.046875 184.875 Z M 115.046875 184.875 "/>
<path style=" stroke:none;fill-rule:nonzero;fill:rgb(29.019609%,76.078433%,91.764706%);fill-opacity:1;" d="M 153.273438 144.808594 L 176.707031 114.601562 C 176.707031 114.601562 184.84375 105.921875 184.84375 89.652344 C 184.84375 73.382812 171.828125 63.621094 164.777344 58.734375 C 157.726562 53.855469 131.691406 35.957031 131.691406 35.957031 C 131.691406 35.957031 122.472656 31.074219 122.472656 24.027344 C 122.472656 18.601562 123.960938 17.710938 123.960938 17.710938 L 120.707031 15 L 100.238281 42.464844 C 100.238281 42.464844 92.101562 51.140625 92.101562 64.160156 C 92.101562 77.183594 98.066406 87.480469 104.578125 92.363281 C 111.085938 97.242188 140.371094 117.3125 140.371094 117.3125 C 140.371094 117.3125 149.988281 124.453125 151.21875 133.042969 C 152.078125 139.039062 151.648438 139.929688 150.019531 142.636719 C 153.273438 144.808594 153.273438 144.808594 153.273438 144.808594 Z M 153.273438 144.808594 "/>
</g>
</svg>
