<?xml version="1.0" encoding="UTF-8"?>
<svg xmlns="http://www.w3.org/2000/svg" xmlns:xlink="http://www.w3.org/1999/xlink" viewBox="0 0 48 48" width="48px" height="48px">
<g id="surface102614970">
<path style=" stroke:none;fill-rule:nonzero;fill:rgb(29.019609%,76.078433%,91.764706%);fill-opacity:1;" d="M 36 41 L 30 41 L 29 45 L 19 45 L 18 41 L 12 41 L 13 39 L 35 39 Z M 36 41 "/>
<path style=" stroke:none;fill-rule:nonzero;fill:rgb(29.019609%,76.078433%,91.764706%);fill-opacity:1;" d="M 23.007812 36.976562 C 25.878906 33.222656 26.980469 32.125 26.980469 30.023438 C 26.980469 27.15625 24.664062 25.832031 22.789062 24.507812 C 20.914062 23.183594 17.824219 22.082031 18.816406 20.207031 C 18.046875 19.65625 18.046875 19.65625 18.046875 19.65625 L 15.726562 22.523438 C 15.726562 22.523438 13.980469 24.398438 14.074219 26.605469 C 14.183594 29.25 15.296875 30.117188 17.601562 31.679688 C 21.355469 34.214844 23.121094 35.207031 22.125 36.3125 C 23.007812 36.976562 22.457031 36.535156 23.007812 36.976562 Z M 23.007812 36.976562 "/>
<path style=" stroke:none;fill-rule:nonzero;fill:rgb(29.019609%,76.078433%,91.764706%);fill-opacity:1;" d="M 30.65625 28.960938 L 35.339844 22.921875 C 35.339844 22.921875 36.96875 21.183594 36.96875 17.929688 C 36.96875 14.675781 34.367188 12.722656 32.957031 11.746094 C 31.546875 10.769531 26.339844 7.191406 26.339844 7.191406 C 26.339844 7.191406 24.496094 6.214844 24.496094 4.804688 C 24.496094 3.71875 24.792969 3.542969 24.792969 3.542969 L 24.140625 3 L 20.046875 8.492188 C 20.046875 8.492188 18.421875 10.226562 18.421875 12.832031 C 18.421875 15.4375 19.613281 17.496094 20.914062 18.472656 C 22.21875 19.449219 28.074219 23.460938 28.074219 23.460938 C 28.074219 23.460938 29.996094 24.890625 30.242188 26.609375 C 30.414062 27.808594 30.328125 27.984375 30.003906 28.527344 C 30.65625 28.960938 30.65625 28.960938 30.65625 28.960938 Z M 30.65625 28.960938 "/>
</g>
</svg>
