<?xml version="1.0" encoding="UTF-8"?>
<svg xmlns="http://www.w3.org/2000/svg" xmlns:xlink="http://www.w3.org/1999/xlink" viewBox="0 0 96 96" width="96px" height="96px">
<g id="surface102349433">
<path style=" stroke:none;fill-rule:nonzero;fill:rgb(29.019609%,76.078433%,91.764706%);fill-opacity:1;" d="M 72 82 L 60 82 L 58 90 L 38 90 L 36 82 L 24 82 L 26 78 L 70 78 Z M 72 82 "/>
<path style=" stroke:none;fill-rule:nonzero;fill:rgb(29.019609%,76.078433%,91.764706%);fill-opacity:1;" d="M 46.019531 73.949219 C 51.753906 66.449219 53.960938 64.246094 53.960938 60.050781 C 53.960938 54.3125 49.328125 51.664062 45.578125 49.015625 C 41.828125 46.367188 35.648438 44.164062 37.636719 40.414062 C 36.089844 39.308594 36.089844 39.308594 36.089844 39.308594 L 31.457031 45.046875 C 31.457031 45.046875 27.960938 48.800781 28.148438 53.210938 C 28.367188 58.503906 30.59375 60.238281 35.207031 63.355469 C 42.707031 68.429688 46.238281 70.417969 44.253906 72.625 C 46.019531 73.949219 44.917969 73.066406 46.019531 73.949219 Z M 46.019531 73.949219 "/>
<path style=" stroke:none;fill-rule:nonzero;fill:rgb(29.019609%,76.078433%,91.764706%);fill-opacity:1;" d="M 61.308594 57.921875 L 70.683594 45.839844 C 70.683594 45.839844 73.9375 42.367188 73.9375 35.859375 C 73.9375 29.351562 68.730469 25.449219 65.910156 23.496094 C 63.089844 21.542969 52.675781 14.382812 52.675781 14.382812 C 52.675781 14.382812 48.988281 12.429688 48.988281 9.609375 C 48.988281 7.441406 49.585938 7.085938 49.585938 7.085938 L 48.28125 6 L 40.09375 16.988281 C 40.09375 16.988281 36.839844 20.457031 36.839844 25.664062 C 36.839844 30.871094 39.226562 34.992188 41.832031 36.945312 C 44.433594 38.898438 56.148438 46.925781 56.148438 46.925781 C 56.148438 46.925781 59.996094 49.78125 60.488281 53.21875 C 60.832031 55.613281 60.660156 55.972656 60.007812 57.054688 C 61.308594 57.921875 61.308594 57.921875 61.308594 57.921875 Z M 61.308594 57.921875 "/>
</g>
</svg>
