<?xml version="1.0" encoding="UTF-8"?>
<svg xmlns="http://www.w3.org/2000/svg" xmlns:xlink="http://www.w3.org/1999/xlink" viewBox="0 0 144 144" width="144px" height="144px">
<g id="surface102614979">
<path style=" stroke:none;fill-rule:nonzero;fill:rgb(29.019609%,76.078433%,91.764706%);fill-opacity:1;" d="M 108.003906 123.003906 L 90 123.003906 L 87 135.003906 L 57 135.003906 L 54 123.003906 L 36 123.003906 L 39 117.003906 L 105.003906 117.003906 Z M 108.003906 123.003906 "/>
<path style=" stroke:none;fill-rule:nonzero;fill:rgb(29.019609%,76.078433%,91.764706%);fill-opacity:1;" d="M 69.027344 110.925781 C 77.632812 99.671875 80.941406 96.371094 80.941406 90.074219 C 80.941406 81.46875 73.992188 77.496094 68.367188 73.527344 C 62.742188 69.554688 53.472656 66.246094 56.453125 60.621094 C 54.136719 58.964844 54.136719 58.964844 54.136719 58.964844 L 47.183594 67.566406 C 47.183594 67.566406 41.945312 73.199219 42.21875 79.8125 C 42.550781 87.753906 45.890625 90.355469 52.808594 95.035156 C 64.0625 102.648438 69.359375 105.625 66.378906 108.933594 C 69.027344 110.925781 67.375 109.601562 69.027344 110.925781 Z M 69.027344 110.925781 "/>
<path style=" stroke:none;fill-rule:nonzero;fill:rgb(29.019609%,76.078433%,91.764706%);fill-opacity:1;" d="M 91.964844 86.886719 L 106.023438 68.761719 C 106.023438 68.761719 110.90625 63.554688 110.90625 53.792969 C 110.90625 44.027344 103.097656 38.171875 98.867188 35.242188 C 94.636719 32.3125 79.015625 21.574219 79.015625 21.574219 C 79.015625 21.574219 73.484375 18.644531 73.484375 14.414062 C 73.484375 11.160156 74.378906 10.625 74.378906 10.625 L 72.425781 9 L 60.140625 25.480469 C 60.140625 25.480469 55.261719 30.683594 55.261719 38.496094 C 55.261719 46.308594 58.839844 52.488281 62.746094 55.417969 C 66.652344 58.34375 84.222656 70.386719 84.222656 70.386719 C 84.222656 70.386719 89.992188 74.671875 90.730469 79.824219 C 91.246094 83.421875 90.988281 83.957031 90.011719 85.582031 C 91.964844 86.886719 91.964844 86.886719 91.964844 86.886719 Z M 91.964844 86.886719 "/>
</g>
</svg>
